1
   -17.880000   29.100000
   -17.680000   29.070000
   -17.560000   28.980000
   -17.460000   28.810000
   -17.450000   28.700000
   -17.500000   28.480000
   -17.570000   28.390000
   -17.600000   28.320000
   -17.690000   28.240000
   -17.830000   28.200000
   -17.950000   28.220000
   -18.040000   28.270000
   -18.090000   28.320000
   -18.130000   28.390000
   -18.140000   28.450000
   -18.260000   28.660000
   -18.280000   28.800000
   -18.220000   28.940000
   -18.110000   29.040000
   -18.030000   29.080000
   -17.960000   29.100000
   -17.880000   29.100000
END
1
   -13.660000   29.920000
   -13.580000   29.950000
   -13.470000   29.950000
   -13.400000   29.930000
   -13.340000   29.890000
   -13.270000   29.810000
   -13.250000   29.760000
   -13.220000   29.520000
   -13.090000   29.390000
   -13.060000   29.310000
   -13.060000   29.240000
   -13.230000   28.890000
   -13.270000   28.840000
   -13.410000   28.760000
   -13.560000   28.510000
   -13.590000   28.330000
   -13.690000   28.110000
   -13.790000   28.020000
   -14.210000   27.820000
   -14.280000   27.800000
   -14.360000   27.800000
   -14.560000   27.820000
   -14.680000   27.870000
   -14.740000   27.930000
   -14.770000   28.000000
   -14.780000   28.060000
   -14.760000   28.140000
   -14.700000   28.260000
   -14.420000   28.480000
   -14.260000   28.820000
   -14.060000   29.130000
   -13.750000   29.850000
   -13.660000   29.920000
END
1
   8.370000   42.580000
   8.380000   42.620000
   8.400000   42.630000
   8.430000   42.690000
   8.500000   42.760000
   8.600000   42.810000
   8.840000   42.870000
   8.930000   42.930000
   9.010000   42.950000
   9.030000   42.970000
   9.030000   43.040000
   9.060000   43.110000
   9.160000   43.200000
   9.270000   43.250000
   9.450000   43.270000
   9.540000   43.250000
   9.630000   43.190000
   9.690000   42.940000
   9.800000   42.830000
   9.800000   42.740000
   9.780000   42.700000
   9.820000   42.660000
   9.830000   42.540000
   9.850000   42.500000
   9.840000   42.370000
   9.870000   42.280000
   9.860000   42.230000
   9.870000   42.130000
   9.850000   42.030000
   9.820000   41.980000
   9.710000   41.870000
   9.710000   41.630000
   9.690000   41.470000
   9.660000   41.400000
   9.460000   41.370000
   9.330000   41.300000
   9.280000   41.250000
   9.120000   41.280000
   8.850000   41.220000
   8.750000   41.240000
   8.650000   41.310000
   8.620000   41.350000
   8.590000   41.360000
   8.510000   41.440000
   8.460000   41.530000
   8.440000   41.540000
   8.440000   41.560000
   8.420000   41.570000
   8.420000   41.590000
   8.370000   41.640000
   8.340000   41.720000
   8.280000   41.810000
   8.280000   41.950000
   8.230000   42.190000
   8.230000   42.430000
   8.250000   42.480000
   8.330000   42.560000
   8.370000   42.580000
END
1
   1.720000   39.320000
   1.850000   39.230000
   1.930000   39.130000
   1.950000   39.080000
   1.950000   38.990000
   1.860000   38.560000
   1.790000   38.480000
   1.710000   38.430000
   1.640000   38.410000
   1.320000   38.400000
   1.250000   38.420000
   1.140000   38.500000
   0.900000   38.780000
   0.860000   38.930000
   0.860000   39.020000
   0.880000   39.080000
   0.950000   39.160000
   1.270000   39.310000
   1.460000   39.360000
   1.590000   39.360000
   1.720000   39.320000
END
1
   -17.480000   28.400000
   -17.320000   28.460000
   -17.220000   28.460000
   -17.170000   28.440000
   -17.140000   28.500000
   -17.060000   28.570000
   -16.940000   28.620000
   -16.540000   28.740000
   -16.380000   28.820000
   -16.030000   28.810000
   -15.920000   28.740000
   -15.860000   28.620000
   -15.850000   28.500000
   -15.890000   28.410000
   -16.150000   28.150000
   -16.170000   28.060000
   -16.220000   27.980000
   -16.360000   27.840000
   -16.450000   27.790000
   -16.640000   27.750000
   -16.730000   27.750000
   -16.850000   27.790000
   -16.910000   27.840000
   -16.940000   27.890000
   -17.010000   27.830000
   -17.100000   27.790000
   -17.220000   27.770000
   -17.330000   27.780000
   -17.430000   27.820000
   -17.550000   27.920000
   -17.550000   27.940000
   -17.580000   27.960000
   -17.610000   28.020000
   -17.620000   28.120000
   -17.600000   28.240000
   -17.550000   28.330000
   -17.530000   28.340000
   -17.530000   28.360000
   -17.480000   28.400000
END
1
   -2.800000   35.790000
   -2.860000   35.740000
   -2.960000   35.700000
   -3.110000   35.700000
   -3.210000   35.740000
   -3.300000   35.830000
   -3.320000   35.880000
   -3.320000   36.000000
   -3.290000   36.060000
   -3.220000   36.130000
   -3.120000   36.170000
   -2.920000   36.170000
   -2.830000   36.120000
   -2.770000   36.050000
   -2.740000   35.960000
   -2.750000   35.880000
   -2.800000   35.790000
END
1
   -9.620000   43.050000
   -9.590000   43.160000
   -9.460000   43.320000
   -9.360000   43.390000
   -9.000000   43.580000
   -8.480000   43.780000
   -8.190000   43.930000
   -8.030000   43.990000
   -7.940000   44.020000
   -7.720000   44.030000
   -7.580000   44.020000
   -6.890000   43.820000
   -6.290000   43.840000
   -5.850000   43.910000
   -4.870000   43.700000
   -4.360000   43.650000
   -3.880000   43.730000
   -3.560000   43.760000
   -3.360000   43.700000
   -2.940000   43.680000
   -2.700000   43.700000
   -2.190000   43.570000
   -1.824375   43.635625
   -1.760000   43.700000
   -1.750000   43.780000
   -1.650000   44.080000
   -1.590000   44.360000
   -1.580000   44.480000
   -1.600000   44.510000
   -1.600000   44.620000
   -1.540000   44.900000
   -1.520000   45.140000
   -1.490000   45.290000
   -1.490000   45.460000
   -1.570000   45.520000
   -1.610000   45.590000
   -1.620000   45.690000
   -1.600000   45.730000
   -1.620000   45.770000
   -1.700000   45.850000
   -1.750000   46.010000
   -1.800000   46.040000
   -2.060000   46.310000
   -2.440000   46.460000
   -2.560000   46.490000
   -2.640000   46.540000
   -2.710000   46.610000
   -2.740000   46.670000
   -2.710000   47.000000
   -2.880000   47.070000
   -3.030000   47.040000
   -3.280000   47.050000
   -3.370000   47.070000
   -3.470000   47.120000
   -3.540000   47.180000
   -3.690000   47.410000
   -3.900000   47.440000
   -3.980000   47.420000
   -4.070000   47.420000
   -4.190000   47.450000
   -4.300000   47.520000
   -4.520000   47.560000
   -4.560000   47.590000
   -5.080000   47.810000
   -5.240000   47.860000
   -5.320000   47.930000
   -5.320000   47.950000
   -5.350000   47.980000
   -5.360000   48.090000
   -5.480000   48.370000
   -5.490000   48.470000
   -5.490000   48.500000
   -5.440000   48.590000
   -5.380000   48.650000
   -5.290000   48.700000
   -4.920000   48.790000
   -4.650000   48.890000
   -4.090000   49.000000
   -3.760000   49.110000
   -3.510000   49.150000
   -3.190000   49.150000
   -3.170000   49.210000
   -3.100000   49.280000
   -3.017895   49.317895
   -3.030000   49.330000
   -3.060000   49.400000
   -3.060000   49.480000
   -3.040000   49.510000
   -3.010000   49.580000
   -2.900000   49.670000
   -2.800000   49.720000
   -2.740000   49.730000
   -2.700000   49.830000
   -2.570000   49.930000
   -2.330000   49.980000
   -2.140000   49.980000
   -2.045172   49.961034
   -1.830000   49.970000
   -1.680000   49.930000
   -1.570000   49.930000
   -1.450000   49.960000
   -1.210000   49.950000
   -1.080000   49.910000
   -0.980000   49.850000
   -0.900000   49.740000
   -0.880000   49.660000
   -0.830000   49.620000
   -0.790000   49.620000
   -0.730000   49.590000
   -0.270000   49.590000
   -0.230000   49.660000
   -0.230000   49.710000
   -0.160000   49.820000
   -0.010000   49.910000
   0.270000   50.000000
   0.440000   50.080000
   0.740000   50.120000
   0.860000   50.160000
   1.000000   50.170000
   1.080000   50.230000
   1.120000   50.240000
   1.140000   50.310000
   1.180000   50.360000
   1.180000   50.430000
   1.210000   50.480000
   1.200000   50.740000
   1.230000   50.810000
   1.220000   50.830000
   1.240000   50.910000
   1.280000   50.950000
   1.530000   51.080000
   1.710000   51.130000
   1.850000   51.230000
   1.960000   51.240000
   2.020000   51.270000
   2.130000   51.290000
   2.170000   51.320000
   2.240000   51.340000
   2.370000   51.350000
   2.410000   51.320000
   2.410193   51.319662
   2.630000   51.390000
   2.710000   51.440000
   2.840000   51.480000
   2.950000   51.550000
   3.050000   51.590000
   3.100000   51.590000
   3.310000   51.490000
   3.400000   51.400000
   3.430000   51.340000
   3.420000   51.300000
   3.450000   51.280000
   3.480000   51.280000
   3.480000   51.310000
   3.510000   51.330000
   3.600000   51.350000
   3.630000   51.330000
   3.800000   51.300000
   3.830000   51.280000
   3.840000   51.250000
   3.960000   51.260000
   4.020000   51.290000
   4.050000   51.280000
   4.170000   51.340000
   4.190000   51.410000
   4.340000   51.420000
   4.350000   51.480000
   4.460000   51.520000
   4.560000   51.520000
   4.590000   51.490000
   4.590000   51.470000
   4.640000   51.470000
   4.730000   51.540000
   4.770000   51.550000
   4.840000   51.530000
   4.880000   51.500000
   4.890000   51.470000
   4.940000   51.500000
   4.980000   51.490000
   5.000000   51.520000
   5.050000   51.530000
   5.120000   51.490000
   5.140000   51.450000
   5.130000   51.400000
   5.170000   51.360000
   5.230000   51.360000
   5.280000   51.330000
   5.280000   51.300000
   5.320000   51.300000
   5.350000   51.320000
   5.420000   51.310000
   5.450000   51.320000
   5.460000   51.340000
   5.510000   51.340000
   5.580000   51.300000
   5.600000   51.280000
   5.600000   51.250000
   5.670000   51.240000
   5.680000   51.220000
   5.760000   51.230000
   5.810000   51.200000
   5.840000   51.210000
   5.870000   51.190000
   5.900000   51.140000
   5.870000   51.110000
   5.870000   51.080000
   5.820000   51.030000
   5.800000   50.940000
   5.760000   50.900000
   5.760000   50.880000
   5.710000   50.860000
   5.730000   50.810000
   5.800000   50.820000
   5.820000   50.800000
   5.910000   50.810000
   5.990000   50.790000
   6.020000   50.800000
   6.080000   50.760000
   6.140000   50.760000
   6.180000   50.700000
   6.300000   50.670000
   6.310000   50.610000
   6.280000   50.580000
   6.270000   50.540000
   6.330000   50.540000
   6.390000   50.510000
   6.390000   50.490000
   6.420000   50.460000
   6.410000   50.380000
   6.440000   50.370000
   6.450000   50.320000
   6.430000   50.290000
   6.390000   50.270000
   6.330000   50.280000
   6.320000   50.240000
   6.230000   50.220000
   6.230000   50.160000
   6.190000   50.140000
   6.190000   50.120000
   6.176250   50.106250
   6.170000   50.050000
   6.210000   50.000000
   6.260000   49.970000
   6.270000   49.920000
   6.380000   49.890000
   6.440000   49.850000
   6.500000   49.860000
   6.560000   49.840000
   6.570000   49.790000
   6.550000   49.740000
   6.560000   49.720000
   6.540000   49.680000
   6.480000   49.660000
   6.480000   49.630000
   6.420000   49.570000
   6.415765   49.519176
   6.480000   49.510000
   6.580000   49.460000
   6.640000   49.380000
   6.630000   49.340000
   6.700000   49.310000
   6.770000   49.210000
   6.800000   49.210000
   6.800000   49.230000
   6.840000   49.260000
   6.960000   49.260000
   7.070000   49.220000
   7.070000   49.190000
   7.110000   49.200000
   7.150000   49.170000
   7.280000   49.160000
   7.300000   49.180000
   7.330000   49.180000
   7.340000   49.210000
   7.470000   49.220000
   7.510000   49.210000
   7.540000   49.180000
   7.550000   49.130000
   7.650000   49.110000
   7.660000   49.090000
   7.760000   49.090000
   7.800000   49.110000
   7.870000   49.080000
   7.950000   49.100000
   8.090000   49.030000
   8.210000   49.010000
   8.230000   49.020000
   8.260000   49.000000
   8.270000   48.950000
   8.160000   48.860000
   8.140000   48.790000
   8.090000   48.750000
   8.060000   48.750000
   8.030000   48.720000
   8.010000   48.720000
   7.970000   48.670000
   7.850000   48.590000
   7.840000   48.570000
   7.850000   48.510000
   7.810000   48.470000
   7.770000   48.390000
   7.790000   48.340000
   7.780000   48.300000
   7.760000   48.280000
   7.730000   48.280000
   7.700000   48.190000
   7.670000   48.180000
   7.610000   48.080000
   7.610000   48.050000
   7.660000   48.000000
   7.660000   47.950000
   7.640000   47.920000
   7.620000   47.920000
   7.600000   47.820000
   7.570000   47.780000
   7.590000   47.720000
   7.560000   47.680000
   7.630000   47.630000
   7.640000   47.640000
   7.730000   47.630000
   7.730000   47.580000
   7.770000   47.590000
   7.810000   47.630000
   7.850000   47.620000
   7.900000   47.630000
   7.940000   47.600000
   8.030000   47.590000
   8.170000   47.640000
   8.180000   47.660000
   8.310000   47.650000
   8.340000   47.610000
   8.380000   47.610000
   8.410000   47.630000
   8.370000   47.650000
   8.360000   47.700000
   8.370000   47.720000
   8.450000   47.800000
   8.530000   47.820000
   8.550000   47.850000
   8.670000   47.840000
   8.780000   47.770000
   8.820000   47.780000
   8.840000   47.750000
   8.900000   47.740000
   8.920000   47.690000
   9.010000   47.730000
   9.170000   47.700000
   9.280000   47.700000
   9.470000   47.630000
   9.530000   47.580000
   9.580000   47.570000
   9.610000   47.510000
   9.680000   47.490000
   9.700000   47.470000
   9.710000   47.360000
   9.680000   47.330000
   9.640000   47.330000
   9.630000   47.300000
   9.540000   47.210000
   9.530000   47.170000
   9.550000   47.160000
   9.570000   47.090000
   9.700000   47.100000
   9.730000   47.080000
   9.800000   47.080000
   9.820000   47.060000
   9.900000   47.060000
   9.930000   47.020000
   9.920000   46.960000
   10.040000   46.940000
   10.110000   46.890000
   10.180000   46.900000
   10.220000   46.970000
   10.280000   46.970000
   10.330000   47.030000
   10.370000   47.040000
   10.410000   47.040000
   10.530000   46.950000
   10.510000   46.830000
   10.480000   46.780000
   10.480000   46.730000
   10.450000   46.700000
   10.450000   46.680000
   10.520000   46.650000
   10.530000   46.630000
   10.530000   46.580000
   10.500000   46.510000
   10.460000   46.490000
   10.410000   46.510000
   10.280000   46.510000
   10.220000   46.540000
   10.200000   46.580000
   10.140000   46.570000
   10.090000   46.520000
   10.090000   46.470000
   10.160000   46.470000
   10.170000   46.450000
   10.190000   46.450000
   10.210000   46.410000
   10.200000   46.370000
   10.160000   46.340000
   10.210000   46.290000
   10.220000   46.250000
   10.160000   46.190000
   10.030000   46.190000
   10.000000   46.240000
   9.960000   46.260000
   9.940000   46.330000
   9.840000   46.320000
   9.780000   46.290000
   9.760000   46.300000
   9.750000   46.270000
   9.720000   46.250000
   9.540000   46.260000
   9.490000   46.290000
   9.460000   46.340000
   9.420000   46.360000
   9.410000   46.430000
   9.380000   46.430000
   9.320000   46.470000
   9.320000   46.380000
   9.340000   46.360000
   9.340000   46.310000
   9.320000   46.270000
   9.200000   46.130000
   9.170000   46.130000
   9.130000   46.100000
   9.130000   46.070000
   9.100000   46.030000
   9.060000   46.020000
   9.060000   45.960000
   9.120000   45.930000
   9.130000   45.890000
   9.050000   45.780000
   8.880000   45.800000
   8.880000   45.890000
   8.820000   45.950000
   8.770000   45.950000
   8.750000   45.970000
   8.750000   46.020000
   8.780000   46.050000
   8.770000   46.060000
   8.680000   46.060000
   8.600000   46.080000
   8.510000   46.180000
   8.410000   46.220000
   8.390000   46.320000
   8.420000   46.350000
   8.420000   46.420000
   8.370000   46.410000
   8.360000   46.370000
   8.290000   46.310000
   8.250000   46.300000
   8.230000   46.270000
   8.160000   46.260000
   8.210000   46.180000
   8.190000   46.120000
   8.120000   46.070000
   8.070000   46.070000
   8.070000   46.020000
   8.010000   45.960000
   7.930000   45.960000
   7.920000   45.910000
   7.890000   45.880000
   7.710000   45.880000
   7.660000   45.930000
   7.570000   45.930000
   7.510000   45.920000
   7.500000   45.900000
   7.450000   45.890000
   7.410000   45.860000
   7.300000   45.870000
   7.280000   45.850000
   7.240000   45.850000
   7.210000   45.820000
   7.080000   45.820000
   7.046684   45.862257
   7.030000   45.840000
   6.870000   45.780000
   6.850000   45.790000
   6.850000   45.750000
   6.870000   45.720000
   6.920000   45.720000
   6.940000   45.690000
   7.020000   45.680000
   7.040000   45.660000
   7.030000   45.550000
   7.080000   45.530000
   7.090000   45.510000
   7.120000   45.510000
   7.150000   45.460000
   7.200000   45.450000
   7.230000   45.400000
   7.200000   45.340000
   7.170000   45.320000
   7.170000   45.230000
   7.110000   45.180000
   7.010000   45.180000
   6.960000   45.130000
   6.930000   45.130000
   6.930000   45.110000
   6.880000   45.090000
   6.830000   45.090000
   6.810000   45.110000
   6.700000   45.100000
   6.700000   45.060000
   6.780000   45.050000
   6.810000   44.960000
   6.800000   44.930000
   6.820000   44.930000
   6.830000   44.910000
   6.870000   44.890000
   6.970000   44.900000
   7.060000   44.850000
   7.050000   44.790000
   7.060000   44.750000
   7.100000   44.740000
   7.120000   44.670000
   7.090000   44.640000
   7.000000   44.650000
   7.010000   44.600000
   6.970000   44.580000
   6.960000   44.540000
   6.910000   44.520000
   6.990000   44.440000
   6.970000   44.390000
   6.940000   44.390000
   7.000000   44.320000
   7.030000   44.310000
   7.040000   44.270000
   7.100000   44.270000
   7.210000   44.240000
   7.220000   44.220000
   7.280000   44.190000
   7.350000   44.190000
   7.380000   44.160000
   7.520000   44.180000
   7.560000   44.200000
   7.600000   44.190000
   7.620000   44.220000
   7.690000   44.220000
   7.720000   44.200000
   7.720000   44.130000
   7.760000   44.090000
   7.750000   44.040000
   7.680000   43.940000
   7.600000   43.910000
   7.600000   43.880000
   7.550000   43.850000
   7.580000   43.750000
   7.650000   43.670000
   7.670000   43.560000
   7.560000   43.500000
   7.553333   43.500000
   7.520000   43.480000
   7.516667   43.480000
   7.510000   43.470000
   7.490000   43.470000
   7.480000   43.450000
   7.460000   43.450000
   7.450000   43.430000
   7.430000   43.430000
   7.420000   43.410000
   7.400000   43.410000
   7.390000   43.390000
   7.370000   43.390000
   7.360000   43.370000
   7.270000   43.330000
   7.240000   43.300000
   7.010000   43.200000
   6.990000   43.120000
   6.950000   43.060000
   6.850000   42.980000
   6.760000   42.880000
   6.610000   42.800000
   6.460000   42.750000
   6.150000   42.740000
   5.830000   42.810000
   5.760000   42.810000
   5.590000   42.870000
   5.490000   42.930000
   5.330000   42.930000
   5.060000   42.990000
   4.930000   43.090000
   4.780000   43.080000
   4.710000   43.110000
   4.520000   43.120000
   4.290000   43.220000
   4.170000   43.220000
   4.000000   43.260000
   3.890000   43.190000
   3.800000   43.170000
   3.730000   43.090000
   3.660000   43.050000
   3.540000   43.020000
   3.440000   43.030000
   3.370000   42.960000
   3.350000   42.690000
   3.420000   42.630000
   3.480000   42.510000
   3.483952   42.478382
   3.560000   42.480000
   3.620000   42.420000
   3.650000   42.320000
   3.540000   41.890000
   3.480000   41.770000
   3.390000   41.680000
   3.300000   41.640000
   3.250000   41.590000
   3.110000   41.510000
   2.920000   41.430000
   2.740000   41.380000
   2.380000   41.160000
   2.360000   41.130000
   2.280000   41.080000
   2.120000   41.030000
   2.010000   41.020000
   1.780000   40.960000
   1.580000   40.940000
   1.510000   40.900000
   1.400000   40.880000
   1.100000   40.540000
   0.640000   40.200000
   0.587500   40.130000
   0.750000   40.140000
   0.820000   40.120000
   0.910000   40.070000
   0.970000   39.990000
   0.990000   39.940000
   0.990000   39.850000
   0.950000   39.740000
   0.900000   39.680000
   0.740000   39.610000
   0.620000   39.610000
   0.540000   39.630000
   0.480000   39.660000
   0.400000   39.740000
   0.370000   39.820000
   0.370000   39.880000
   0.140000   39.620000
   0.090000   39.560000
   0.090000   39.270000
   0.330000   39.020000
   0.410000   38.980000
   0.510000   38.860000
   0.540000   38.750000
   0.530000   38.670000
   0.490000   38.600000
   0.430000   38.540000
   -0.140000   38.200000
   -0.210000   38.030000
   -0.350000   37.900000
   -0.350000   37.630000
   -0.390000   37.530000
   -0.450000   37.470000
   -0.590000   37.380000
   -0.720000   37.340000
   -0.850000   37.310000
   -1.040000   37.300000
   -1.340000   37.210000
   -1.550000   37.050000
   -1.560000   37.000000
   -1.610000   36.920000
   -1.610000   36.890000
   -1.650000   36.810000
   -1.710000   36.750000
   -1.740000   36.740000
   -1.850000   36.600000
   -1.870000   36.600000
   -2.000000   36.510000
   -2.100000   36.480000
   -2.680000   36.440000
   -2.820000   36.440000
   -3.190000   36.500000
   -3.350000   36.450000
   -4.030000   36.480000
   -4.530000   36.280000
   -4.640000   36.250000
   -4.880000   36.230000
   -5.040000   36.110000
   -5.060000   36.060000
   -5.010000   36.000000
   -4.980000   35.930000
   -4.980000   35.840000
   -4.980000   35.810000
   -4.980000   35.770000
   -4.820000   35.580000
   -4.570000   35.450000
   -4.300000   35.430000
   -3.700000   35.530000
   -3.320000   35.480000
   -3.140000   35.640000
   -3.070000   35.670000
   -2.960000   35.680000
   -2.860000   35.660000
   -2.750000   35.610000
   -2.670000   35.530000
   -2.670000   35.526667
   -2.600000   35.480000
   -2.560000   35.480000
   -2.200000   35.380000
   -2.170000   35.360000
   -2.170000   35.070000
   -2.140000   35.040000
   -2.100000   35.030000
   -2.040000   34.970000
   -1.980000   34.980000
   -1.950000   34.970000
   -1.930000   34.950000
   -1.930000   34.900000
   -1.870000   34.880000
   -1.840000   34.830000
   -1.750000   34.800000
   -1.700000   34.760000
   -1.700000   34.720000
   -1.780000   34.640000
   -1.780000   34.620000
   -1.710000   34.540000
   -1.660000   34.530000
   -1.650000   34.510000
   -1.670000   34.450000
   -1.730000   34.390000
   -1.670000   34.330000
   -1.670000   34.240000
   -1.610000   34.130000
   -1.610000   34.070000
   -1.660000   33.870000
   -1.630000   33.820000
   -1.630000   33.760000
   -1.660000   33.720000
   -1.620000   33.710000
   -1.610000   33.670000
   -1.570000   33.650000
   -1.550000   33.610000
   -1.560000   33.590000
   -1.550000   33.510000
   -1.580000   33.470000
   -1.590000   33.410000
   -1.620000   33.380000
   -1.620000   33.280000
   -1.600000   33.250000
   -1.570000   33.240000
   -1.520000   33.150000
   -1.430000   33.090000
   -1.420000   33.030000
   -1.470000   32.920000
   -1.370000   32.790000
   -1.290000   32.740000
   -1.260000   32.740000
   -1.190000   32.680000
   -1.150000   32.670000
   -1.110000   32.630000
   -0.990000   32.570000
   -0.960000   32.540000
   -0.960000   32.490000
   -0.980000   32.470000
   -1.110000   32.370000
   -1.170000   32.370000
   -1.200000   32.310000
   -1.190000   32.300000
   -1.210000   32.240000
   -1.200000   32.210000
   -1.160000   32.200000
   -1.120000   32.150000
   -1.110000   32.130000
   -1.120000   32.080000
   -1.200000   32.040000
   -1.390000   32.040000
   -1.470000   32.060000
   -1.590000   32.050000
   -1.640000   32.070000
   -1.770000   32.080000
   -1.790000   32.100000
   -1.870000   32.100000
   -1.900000   32.120000
   -1.940000   32.110000
   -2.030000   32.140000
   -2.150000   32.100000
   -2.200000   32.100000
   -2.230000   32.120000
   -2.450000   32.120000
   -2.530000   32.110000
   -2.590000   32.070000
   -2.870000   32.070000
   -2.890000   32.040000
   -2.840000   31.970000
   -2.840000   31.940000
   -2.800000   31.900000
   -2.800000   31.850000
   -2.780000   31.830000
   -2.790000   31.760000
   -3.620000   31.600000
   -3.630000   31.500000
   -3.610000   31.370000
   -3.720000   31.300000
   -3.710000   31.280000
   -3.730000   31.210000
   -3.700000   31.220000
   -3.670000   31.200000
   -3.630000   31.210000
   -3.600000   31.190000
   -3.600000   31.150000
   -3.580000   31.140000
   -3.580000   31.120000
   -3.510000   31.080000
   -3.500000   30.940000
   -3.570000   30.870000
   -3.580000   30.840000
   -3.610000   30.830000
   -3.590000   30.720000
   -3.610000   30.660000
   -3.640000   30.630000
   -3.740000   30.600000
   -3.760000   30.570000
   -3.800000   30.550000
   -3.880000   30.570000
   -3.980000   30.550000
   -4.140000   30.550000
   -4.310000   30.490000
   -4.560000   30.260000
   -4.920000   30.110000
   -5.110000   29.960000
   -5.210000   29.910000
   -5.260000   29.860000
   -5.290000   29.750000
   -5.490000   29.520000
   -5.540000   29.440000
   -5.630000   29.450000
   -5.680000   29.470000
   -5.690000   29.490000
   -5.770000   29.480000
   -5.790000   29.500000
   -5.780000   29.560000
   -5.800000   29.570000
   -5.830000   29.570000
   -5.850000   29.550000
   -5.970000   29.550000
   -6.030000   29.520000
   -6.210000   29.540000
   -6.360000   29.530000
   -6.370000   29.510000
   -6.410000   29.510000
   -6.440000   29.530000
   -6.520000   29.480000
   -6.590000   29.490000
   -6.690000   29.480000
   -6.720000   29.440000
   -6.760000   29.420000
   -6.820000   29.420000
   -6.920000   29.460000
   -7.030000   29.450000
   -7.100000   29.480000
   -7.160000   29.480000
   -7.180000   29.460000
   -7.230000   29.450000
   -7.330000   29.350000
   -7.420000   29.340000
   -7.460000   29.320000
   -7.580000   29.330000
   -7.620000   29.260000
   -7.660000   29.260000
   -7.760000   29.220000
   -7.800000   29.170000
   -7.890000   29.140000
   -7.940000   29.080000
   -8.020000   29.050000
   -8.130000   28.970000
   -8.210000   28.940000
   -8.280000   28.880000
   -8.330000   28.860000
   -8.440000   28.750000
   -8.570000   28.710000
   -8.630000   28.650000
   -8.630000   27.650000
   -8.650000   27.630000
   -8.760000   27.630000
   -8.720000   27.450000
   -8.720000   27.280000
   -8.740000   27.220000
   -8.700000   27.170000
   -8.690000   27.090000
   -8.690000   27.030000
   -8.720000   27.010000
   -8.740000   26.950000
   -9.050000   26.970000
   -9.070000   26.930000
   -9.340000   26.940000
   -9.400000   26.910000
   -9.470000   26.920000
   -9.510000   26.900000
   -9.530000   26.870000
   -9.590000   26.860000
   -9.620000   26.820000
   -9.650000   26.810000
   -9.650000   26.790000
   -9.680000   26.760000
   -9.720000   26.750000
   -9.740000   26.720000
   -9.780000   26.700000
   -9.850000   26.710000
   -9.900000   26.690000
   -9.960000   26.690000
   -10.080000   26.740000
   -10.250000   26.740000
   -10.280000   26.780000
   -10.350000   26.800000
   -10.430000   26.800000
   -10.570000   26.860000
   -10.870000   26.860000
   -10.930000   26.880000
   -11.160000   26.860000
   -11.300000   26.820000
   -11.230000   26.750000
   -11.220000   26.710000
   -11.250000   26.670000
   -11.350000   26.610000
   -11.350000   26.590000
   -11.380000   26.560000
   -11.380000   26.530000
   -11.420000   26.500000
   -11.450000   26.440000
   -11.440000   26.430000
   -11.450000   26.380000
   -11.510000   26.330000
   -11.520000   26.210000
   -11.570000   26.140000
   -11.630000   25.980000
   -11.660000   25.960000
   -11.960000   25.960000
   -11.960000   25.690000
   -11.990000   25.600000
   -11.990000   25.550000
   -12.030000   25.520000
   -12.030000   25.500000
   -11.980000   25.460000
   -11.960000   25.330000
   -12.010000   25.300000
   -12.010000   25.270000
   -12.040000   25.220000
   -12.210000   25.030000
   -12.230000   24.960000
   -12.290000   24.940000
   -12.290000   24.910000
   -12.350000   24.820000
   -12.440000   24.820000
   -12.460000   24.790000
   -12.510000   24.780000
   -12.510000   24.740000
   -12.550000   24.710000
   -12.550000   24.690000
   -12.580000   24.660000
   -12.630000   24.650000
   -12.660000   24.570000
   -12.760000   24.530000
   -12.830000   24.430000
   -12.890000   24.400000
   -12.900000   24.360000
   -12.920000   24.350000
   -12.930000   24.240000
   -12.970000   24.170000
   -12.990000   23.980000
   -13.040000   23.940000
   -13.070000   23.940000
   -13.120000   23.970000
   -13.220000   23.920000
   -13.280000   23.930000
   -13.320000   23.900000
   -13.370000   23.890000
   -13.390000   23.860000
   -13.420000   23.860000
   -13.470000   23.830000
   -13.540000   23.840000
   -13.560000   23.820000
   -13.650000   23.810000
   -13.700000   23.740000
   -13.750000   23.720000
   -13.880000   23.410000
   -13.910000   23.280000
   -13.960000   23.180000
   -13.960000   23.140000
   -13.980000   23.110000
   -13.960000   22.990000
   -13.970000   22.970000
   -14.010000   22.970000
   -14.080000   22.780000
   -14.070000   22.580000
   -14.120000   22.400000
   -14.200000   22.300000
   -14.240000   22.220000
   -14.310000   22.160000
   -14.310000   22.140000
   -14.360000   22.110000
   -14.400000   22.040000
   -14.460000   22.010000
   -14.440000   21.820000
   -14.450000   21.810000
   -14.440000   21.710000
   -14.460000   21.650000
   -14.480000   21.640000
   -14.500000   21.570000
   -14.580000   21.520000
   -14.680000   21.400000
   -14.780000   21.360000
   -14.800000   21.330000
   -14.830000   21.320000
   -14.880000   21.330000
   -14.970000   21.320000
   -15.010000   21.300000
   -16.190000   21.300000
   -16.420000   21.330000
   -16.450000   21.350000
   -16.680000   21.340000
   -16.740000   21.350000
   -16.830000   21.340000
   -16.860000   21.300000
   -16.890000   21.290000
   -16.970000   21.290000
   -17.250000   21.310000
   -17.280000   21.330000
   -17.270000   21.440000
   -17.240000   21.560000
   -17.230000   21.660000
   -17.240000   21.740000
   -17.220000   21.790000
   -17.220000   21.850000
   -17.190000   21.940000
   -17.140000   22.000000
   -17.140000   22.030000
   -17.110000   22.070000
   -17.080000   22.240000
   -17.040000   22.310000
   -16.980000   22.350000
   -16.880000   22.460000
   -16.790000   22.520000
   -16.690000   22.540000
   -16.670000   22.620000
   -16.600000   22.700000
   -16.580000   22.850000
   -16.560000   22.870000
   -16.530000   23.000000
   -16.470000   23.070000
   -16.450000   23.180000
   -16.410000   23.260000
   -16.360000   23.300000
   -16.290000   23.460000
   -16.230000   23.510000
   -16.270000   23.630000
   -16.260000   23.710000
   -16.230000   23.780000
   -16.160000   23.870000
   -16.150000   23.910000
   -16.020000   24.070000
   -15.900000   24.160000
   -15.820000   24.190000
   -15.760000   24.270000
   -15.730000   24.280000
   -15.600000   24.420000
   -15.580000   24.420000
   -15.490000   24.500000
   -15.460000   24.560000
   -15.390000   24.630000
   -15.300000   24.700000
   -15.220000   24.730000
   -15.190000   24.790000
   -15.130000   24.830000
   -15.120000   24.890000
   -15.090000   24.940000
   -15.090000   25.030000
   -15.110000   25.100000
   -15.110000   25.230000
   -15.090000   25.280000
   -15.090000   25.340000
   -15.030000   25.520000
   -14.980000   25.580000
   -14.980000   25.600000
   -14.950000   25.620000
   -14.880000   25.870000
   -14.800000   25.960000
   -14.770000   26.010000
   -14.770000   26.040000
   -14.750000   26.050000
   -14.760000   26.190000
   -14.680000   26.340000
   -14.590000   26.440000
   -14.500000   26.490000
   -14.440000   26.500000
   -14.400000   26.570000
   -14.330000   26.630000
   -14.210000   26.670000
   -14.120000   26.670000
   -14.100000   26.700000
   -13.840000   26.830000
   -13.780000   26.880000
   -13.720000   27.030000
   -13.710000   27.160000
   -13.660000   27.220000
   -13.640000   27.290000
   -13.620000   27.300000
   -13.610000   27.340000
   -13.520000   27.480000
   -13.460000   27.640000
   -13.450000   27.710000
   -13.370000   27.860000
   -13.330000   27.900000
   -13.240000   27.940000
   -13.100000   28.130000
   -13.030000   28.180000
   -12.920000   28.210000
   -12.810000   28.230000
   -12.620000   28.230000
   -12.340000   28.290000
   -11.890000   28.450000
   -11.640000   28.520000
   -11.520000   28.700000
   -11.440000   28.750000
   -11.310000   28.900000
   -10.700000   29.230000
   -10.390000   29.540000
   -10.220000   29.810000
   -10.160000   29.860000
   -10.110000   29.930000
   -10.050000   29.970000
   -9.860000   30.300000
   -9.930000   30.400000
   -10.070000   30.440000
   -10.110000   30.480000
   -10.150000   30.580000
   -10.160000   30.720000
   -10.120000   30.940000
   -10.110000   31.440000
   -10.040000   31.600000
   -9.880000   31.890000
   -9.590000   32.170000
   -9.560000   32.370000
   -9.560000   32.590000
   -9.520000   32.680000
   -9.410000   32.790000
   -9.270000   32.890000
   -9.220000   32.950000
   -8.910000   33.200000
   -8.850000   33.300000
   -8.680000   33.470000
   -8.410000   33.590000
   -7.720000   33.840000
   -7.350000   34.020000
   -7.200000   34.070000
   -7.030000   34.200000
   -6.910000   34.410000
   -6.820000   34.520000
   -6.590000   34.900000
   -6.490000   35.170000
   -6.320000   35.530000
   -6.200000   35.870000
   -6.132164   35.952910
   -6.240000   36.010000
   -6.480000   36.260000
   -6.940000   36.910000
   -7.010000   36.930000
   -7.390000   36.930000
   -7.420000   36.950000
   -7.440000   37.170000
   -7.470000   37.230000
   -7.480000   37.370000
   -7.500000   37.390000
   -7.500000   37.450000
   -7.560000   37.530000
   -7.540000   37.630000
   -7.500000   37.660000
   -7.460000   37.780000
   -7.360000   37.840000
   -7.320000   37.890000
   -7.320000   37.920000
   -7.290000   37.950000
   -7.300000   38.000000
   -7.260000   38.030000
   -7.170000   38.040000
   -7.130000   38.080000
   -7.070000   38.080000
   -7.040000   38.060000
   -7.020000   38.130000
   -7.000000   38.140000
   -7.120000   38.140000
   -7.180000   38.220000
   -7.180000   38.240000
   -7.220000   38.270000
   -7.220000   38.290000
   -7.300000   38.360000
   -7.310000   38.390000
   -7.360000   38.400000
   -7.380000   38.430000
   -7.340000   38.570000
   -7.310000   38.600000
   -7.300000   38.740000
   -7.270000   38.770000
   -7.230000   38.780000
   -7.210000   38.810000
   -7.190000   38.810000
   -7.170000   38.840000
   -7.110000   38.860000
   -7.090000   38.880000
   -7.090000   38.930000
   -7.000000   39.020000
   -7.010000   39.060000
   -7.040000   39.080000
   -7.090000   39.060000
   -7.160000   39.070000
   -7.190000   39.100000
   -7.190000   39.140000
   -7.250000   39.160000
   -7.280000   39.190000
   -7.290000   39.270000
   -7.350000   39.320000
   -7.350000   39.440000
   -7.400000   39.450000
   -7.440000   39.500000
   -7.480000   39.520000
   -7.480000   39.540000
   -7.540000   39.570000
   -7.580000   39.650000
   -7.580000   39.680000
   -7.550000   39.710000
   -7.340000   39.680000
   -7.260000   39.710000
   -7.150000   39.690000
   -7.040000   39.710000
   -7.030000   39.820000
   -6.940000   39.900000
   -6.950000   39.930000
   -6.930000   39.950000
   -6.920000   40.020000
   -6.960000   40.050000
   -6.960000   40.070000
   -7.010000   40.070000
   -7.020000   40.090000
   -7.040000   40.090000
   -7.060000   40.120000
   -7.070000   40.200000
   -7.030000   40.270000
   -6.980000   40.280000
   -6.960000   40.300000
   -6.900000   40.300000
   -6.880000   40.340000
   -6.850000   40.350000
   -6.890000   40.430000
   -6.880000   40.490000
   -6.850000   40.510000
   -6.850000   40.530000
   -6.880000   40.540000
   -6.890000   40.570000
   -6.880000   40.610000
   -6.840000   40.650000
   -6.850000   40.670000
   -6.840000   40.680000
   -6.870000   40.720000
   -6.860000   40.860000
   -6.890000   40.890000
   -6.890000   40.930000
   -6.910000   40.930000
   -6.920000   40.960000
   -6.960000   40.980000
   -6.970000   41.040000
   -6.930000   41.080000
   -6.820000   41.080000
   -6.810000   41.150000
   -6.750000   41.190000
   -6.700000   41.260000
   -6.660000   41.290000
   -6.590000   41.300000
   -6.560000   41.290000
   -6.550000   41.310000
   -6.470000   41.340000
   -6.430000   41.380000
   -6.430000   41.400000
   -6.370000   41.430000
   -6.290000   41.540000
   -6.250000   41.570000
   -6.300000   41.620000
   -6.350000   41.640000
   -6.530000   41.620000
   -6.590000   41.670000
   -6.590000   41.710000
   -6.610000   41.730000
   -6.590000   41.810000
   -6.570000   41.830000
   -6.610000   41.860000
   -6.610000   41.900000
   -6.710000   41.890000
   -6.760000   41.900000
   -6.780000   41.920000
   -6.830000   41.900000
   -6.860000   41.910000
   -6.940000   41.900000
   -6.970000   41.920000
   -7.090000   41.910000
   -7.130000   41.950000
   -7.140000   41.940000
   -7.130000   41.910000
   -7.180000   41.840000
   -7.250000   41.830000
   -7.310000   41.800000
   -7.370000   41.800000
   -7.400000   41.770000
   -7.450000   41.770000
   -7.480000   41.820000
   -7.540000   41.790000
   -7.630000   41.790000
   -7.650000   41.800000
   -7.650000   41.840000
   -7.690000   41.860000
   -7.820000   41.840000
   -7.870000   41.800000
   -7.900000   41.810000
   -7.920000   41.840000
   -7.970000   41.830000
   -7.990000   41.790000
   -8.070000   41.770000
   -8.190000   41.780000
   -8.200000   41.830000
   -8.250000   41.870000
   -8.260000   41.920000
   -8.220000   41.980000
   -8.160000   42.030000
   -8.210000   42.030000
   -8.230000   42.090000
   -8.290000   42.070000
   -8.320000   42.040000
   -8.350000   42.050000
   -8.410000   42.030000
   -8.490000   42.040000
   -8.540000   42.010000
   -8.620000   42.010000
   -8.630000   41.970000
   -8.710000   41.940000
   -8.740000   41.890000
   -8.790000   41.880000
   -8.860000   41.820000
   -9.170000   41.830000
   -9.200000   41.870000
   -9.190000   41.890000
   -9.180000   41.970000
   -9.220000   42.150000
   -9.380000   42.480000
   -9.590000   42.810000
   -9.610000   42.880000
   -9.620000   43.050000
END
1
   -15.740000   28.410000
   -15.350000   28.420000
   -15.260000   28.380000
   -15.180000   28.310000
   -15.140000   28.250000
   -15.090000   28.010000
   -15.090000   27.880000
   -15.120000   27.780000
   -15.230000   27.630000
   -15.480000   27.500000
   -15.530000   27.490000
   -15.720000   27.500000
   -15.860000   27.560000
   -16.020000   27.700000
   -16.100000   27.850000
   -16.100000   27.940000
   -16.090000   28.070000
   -15.930000   28.300000
   -15.890000   28.350000
   -15.820000   28.390000
   -15.740000   28.410000
END
1
   -18.060000   28.070000
   -17.970000   28.090000
   -17.840000   28.080000
   -17.720000   28.020000
   -17.660000   27.950000
   -17.610000   27.810000
   -17.630000   27.710000
   -17.750000   27.500000
   -17.840000   27.430000
   -17.960000   27.390000
   -18.100000   27.410000
   -18.330000   27.510000
   -18.420000   27.620000
   -18.430000   27.740000
   -18.420000   27.820000
   -18.390000   27.880000
   -18.330000   27.940000
   -18.260000   27.990000
   -18.060000   28.070000
END
1
   2.590000   40.040000
   2.600000   40.060000
   2.720000   40.090000
   2.810000   40.140000
   3.100000   40.200000
   3.300000   40.200000
   3.440000   40.130000
   3.500000   40.070000
   3.580000   40.200000
   3.710000   40.280000
   4.070000   40.340000
   4.200000   40.320000
   4.330000   40.270000
   4.470000   40.180000
   4.550000   40.100000
   4.630000   39.930000
   4.630000   39.830000
   4.580000   39.700000
   4.530000   39.640000
   4.380000   39.560000
   4.210000   39.560000
   3.780000   39.680000
   3.720000   39.530000
   3.490000   39.230000
   3.150000   38.930000
   2.990000   38.880000
   2.830000   38.890000
   2.730000   38.930000
   2.070000   39.410000
   2.000000   39.530000
   2.010000   39.650000
   2.060000   39.730000
   2.160000   39.800000
   2.400000   39.920000
   2.500000   40.000000
   2.590000   40.040000
END
END
